<?xml version="1.0" standalone="no"?>
<!DOCTYPE svg PUBLIC "-//W3C//DTD SVG 20010904//EN"
 "http://www.w3.org/TR/2001/REC-SVG-20010904/DTD/svg10.dtd">
<svg version="1.0" xmlns="http://www.w3.org/2000/svg"
 width="1000.000000pt" height="500.000000pt" viewBox="0 0 1000.000000 500.000000"
 preserveAspectRatio="xMidYMid meet">

<g transform="translate(0.000000,500.000000) scale(0.100000,-0.100000)"
fill="#000000" stroke="none">
<path d="M1906 3814 l7 -356 -22 7 c-12 4 -64 27 -114 52 -51 25 -155 75 -232
110 -77 36 -196 95 -265 131 -105 55 -133 66 -175 67 -79 0 -114 -28 -171
-138 -26 -51 -75 -140 -110 -199 -131 -221 -184 -349 -184 -440 0 -96 23 -117
233 -209 97 -43 518 -240 527 -247 3 -2 -2 -7 -10 -12 -8 -5 -112 -76 -230
-159 -118 -82 -255 -174 -304 -203 -98 -59 -130 -91 -147 -146 -15 -50 0 -105
46 -169 19 -26 68 -107 109 -178 200 -349 307 -459 416 -426 21 6 74 37 117
68 204 147 486 343 494 343 5 0 6 -165 2 -367 -7 -412 -5 -425 59 -460 30 -16
68 -18 393 -20 198 -2 383 -4 411 -5 63 -4 96 13 117 58 14 29 18 98 23 474 4
242 9 440 11 440 2 0 45 -22 96 -49 51 -27 217 -112 369 -190 232 -118 285
-141 322 -141 73 0 114 45 176 195 45 110 177 372 239 474 39 64 51 94 51 124
0 69 -44 99 -409 283 -179 90 -329 168 -334 173 -5 5 33 36 97 77 404 261 544
355 561 379 25 33 25 96 0 145 -9 19 -42 69 -73 110 -89 119 -249 364 -286
439 -48 94 -86 131 -137 131 -54 0 -91 -21 -399 -223 l-265 -175 -6 87 c-4 47
-7 179 -8 294 l-1 207 -500 0 -501 0 7 -356z m627 17 l42 -40 3 -135 c2 -87 0
-136 -7 -136 -5 0 -12 9 -16 20 -9 29 -67 60 -111 60 -22 0 -63 -11 -92 -25
-30 -14 -56 -25 -58 -25 -2 0 -4 47 -4 105 0 117 9 146 60 189 26 21 42 26 86
26 50 0 59 -4 97 -39z m-26 -271 c44 -27 61 -82 39 -133 -13 -32 -26 -42 -88
-70 -117 -54 -180 -142 -209 -292 -13 -69 -3 -117 37 -177 27 -40 36 -65 41
-113 4 -42 2 -65 -6 -69 -33 -21 -174 106 -214 191 -29 65 -31 249 -3 333 50
147 136 259 246 319 64 36 112 39 157 11z m54 -416 c-6 -142 -11 -284 -11
-316 0 -42 -4 -58 -14 -58 -17 0 -29 -181 -14 -216 20 -42 -15 -110 -99 -191
-41 -40 -78 -73 -84 -73 -5 0 -9 26 -9 58 0 33 -3 120 -7 195 -5 117 -4 137 9
137 12 0 14 15 10 88 -3 54 -9 93 -18 103 -11 12 -14 53 -14 171 0 155 0 155
29 194 43 59 71 81 134 104 34 13 64 32 74 46 8 14 18 23 20 20 3 -2 0 -120
-6 -262z m44 -437 c50 -53 69 -112 63 -199 -7 -116 -69 -204 -235 -335 -95
-76 -128 -127 -111 -174 5 -16 14 -32 19 -35 5 -3 9 -36 9 -75 0 -80 -6 -84
-69 -39 -108 79 -127 207 -46 313 19 25 75 77 124 117 112 88 156 139 176 201
14 40 14 55 5 84 -14 41 -4 185 13 185 6 0 29 -19 52 -43z m-85 -649 c-5 -118
-10 -160 -23 -183 -11 -19 -17 -52 -17 -91 0 -86 -14 -118 -70 -159 -26 -19
-50 -35 -54 -35 -3 0 -6 45 -6 100 0 60 4 100 10 100 6 0 10 36 10 89 0 66 -4
92 -15 101 -22 18 -18 71 8 101 25 30 144 129 155 129 4 0 5 -69 2 -152z
m1345 -77 c-16 -62 -25 -74 -48 -65 -22 8 -21 16 4 67 44 86 67 85 44 -2z
m-1316 -132 c29 -27 60 -95 61 -132 0 -76 -56 -147 -172 -214 -96 -55 -122
-85 -114 -132 3 -19 15 -44 26 -56 15 -16 20 -33 18 -54 l-3 -31 -31 22 c-77
54 -101 136 -64 213 17 35 43 62 108 111 47 35 92 74 100 86 10 13 17 52 19
102 6 117 10 124 52 85z m1240 2 c12 -8 11 -15 -3 -51 -9 -23 -32 -66 -51 -95
-53 -84 -106 -92 -241 -38 -80 31 -101 54 -86 88 15 32 43 32 99 0 24 -14 62
-33 85 -41 54 -19 74 -6 129 81 43 68 45 70 68 56z m-1292 -408 c-4 -38 -7
-89 -7 -115 0 -38 -4 -48 -16 -48 -15 0 -16 -10 -11 -80 4 -63 2 -84 -10 -95
-19 -20 -36 -19 -62 3 -23 20 -35 99 -13 95 18 -4 16 94 -3 113 -21 22 -20
107 2 125 22 19 106 68 117 68 5 1 6 -29 3 -66z m19 -229 c14 -34 19 -110 8
-138 -3 -9 -14 -16 -23 -16 -16 0 -18 12 -19 100 -1 105 7 118 34 54z"/>
<path d="M2156 3047 c-5 -21 -6 -41 -2 -44 12 -12 17 5 14 43 l-4 39 -8 -38z"/>
<path d="M2170 2931 c0 -33 81 -131 108 -131 7 0 -1 12 -19 27 -18 15 -45 48
-61 72 -15 25 -28 39 -28 32z"/>
<path d="M2600 2598 c0 -7 5 -20 10 -28 8 -12 10 -11 10 7 0 12 -4 25 -10 28
-5 3 -10 0 -10 -7z"/>
<path d="M2605 2478 c-4 -13 -20 -40 -36 -60 -17 -21 -26 -38 -20 -38 14 0 60
59 67 86 8 32 -2 43 -11 12z"/>
<path d="M2556 1748 c5 -38 2 -57 -16 -93 -28 -57 -19 -72 9 -16 22 43 28 116
10 141 -7 11 -8 2 -3 -32z"/>
<path d="M9075 3141 c-3 -11 -19 -21 -37 -25 -17 -3 -239 -6 -494 -6 -437 0
-464 -1 -464 -18 0 -9 10 -22 23 -27 l22 -10 0 -485 0 -485 -22 -10 c-14 -6
-23 -18 -23 -32 l0 -23 500 0 c489 0 500 0 512 -20 7 -11 21 -20 30 -20 16 0
18 13 18 140 0 121 -2 140 -16 140 -9 0 -24 -10 -34 -22 -18 -23 -19 -23 -369
-26 l-351 -3 0 141 0 140 233 -2 c230 -3 232 -3 242 -25 5 -13 18 -23 27 -23
16 0 18 13 18 145 0 126 -2 145 -16 145 -9 0 -24 -10 -34 -22 -18 -22 -24 -23
-244 -26 l-226 -3 0 120 0 121 348 0 349 0 11 -25 c6 -14 18 -25 27 -25 13 0
15 22 15 145 0 137 -1 145 -19 145 -11 0 -22 -8 -26 -19z"/>
<path d="M4280 3092 c0 -9 10 -22 23 -27 l22 -10 0 -485 0 -485 -22 -10 c-14
-6 -23 -18 -23 -32 0 -23 0 -23 170 -23 162 0 170 1 170 20 0 10 -11 30 -25
44 -25 25 -25 26 -25 216 l0 190 305 0 305 0 0 -194 c0 -164 -3 -197 -16 -210
-8 -9 -20 -16 -25 -16 -5 0 -9 -11 -9 -25 l0 -25 170 0 170 0 0 25 c0 14 -4
25 -9 25 -5 0 -17 7 -25 16 -14 14 -16 71 -16 484 0 413 2 470 16 484 8 9 20
16 25 16 5 0 9 9 9 20 0 19 -7 20 -170 20 -163 0 -170 -1 -170 -20 0 -11 4
-20 9 -20 5 0 17 -7 25 -16 13 -13 16 -45 16 -195 l0 -179 -305 0 -305 0 0
175 c0 174 0 176 25 201 51 50 41 54 -145 54 -156 0 -170 -1 -170 -18z"/>
<path d="M6010 3094 c0 -9 11 -25 25 -36 19 -15 24 -26 19 -42 -6 -23 -317
-682 -395 -838 -38 -76 -55 -99 -74 -104 -18 -4 -25 -13 -25 -30 l0 -24 180 0
180 0 0 23 c0 16 -9 28 -25 35 -14 6 -25 19 -25 28 0 8 19 56 41 105 l42 89
241 0 242 0 43 -88 c46 -94 49 -121 13 -137 -13 -6 -22 -19 -22 -32 l0 -23
200 0 200 0 0 23 c0 15 -10 26 -31 36 -28 12 -54 61 -254 467 -123 249 -226
462 -229 472 -7 20 15 52 35 52 5 0 9 9 9 20 0 19 -7 20 -195 20 -172 0 -195
-2 -195 -16z m227 -361 c19 -43 55 -122 78 -175 l44 -98 -164 0 -163 0 81 175
c44 96 82 175 84 175 2 0 20 -35 40 -77z"/>
<path d="M6950 3092 c0 -9 10 -22 23 -27 l22 -10 0 -485 0 -485 -22 -10 c-14
-6 -23 -18 -23 -32 l0 -23 485 0 c474 0 485 0 497 -20 7 -11 21 -20 30 -20 16
0 18 13 18 140 0 121 -2 140 -16 140 -9 0 -24 -10 -34 -22 -18 -23 -19 -23
-354 -26 l-336 -3 0 411 0 411 25 25 c51 50 41 54 -145 54 -156 0 -170 -1
-170 -18z"/>
</g>
</svg>
